<svg id="airline" xmlns="http://www.w3.org/2000/svg" width="59.308" height="59.308" viewBox="0 0 59.308 59.308">
  <path id="Path_40" data-name="Path 40" d="M55.757,10.249a7.441,7.441,0,0,0-7.286-.327l-9.486,4.743L12.791.694A5.31,5.31,0,0,0,5.225,3.175,5.138,5.138,0,0,0,6.342,8.794L21.137,23.589,9.777,29.269,6.905,24.962a1.738,1.738,0,0,0-1.446-.774H1.738A1.738,1.738,0,0,0,0,25.926v6.921a10.112,10.112,0,0,0,14.635,9.045L56.683,20.867a4.736,4.736,0,0,0,2.625-4.248,7.441,7.441,0,0,0-3.552-6.37ZM8.8,6.336a1.674,1.674,0,0,1-.364-1.831,1.858,1.858,0,0,1,2.72-.745L35.174,16.57l-10.76,5.38ZM55.129,17.759,13.081,38.784a6.637,6.637,0,0,1-9.606-5.937V27.663H4.53l3.206,4.81a1.738,1.738,0,0,0,2.223.59L50.025,13.03a3.988,3.988,0,0,1,3.9.175,4.04,4.04,0,0,1,1.9,3.414,1.271,1.271,0,0,1-.7,1.14Z" transform="translate(0 0)" fill="#fff"/>
  <path id="Path_41" data-name="Path 41" d="M57.571,482H1.738a1.738,1.738,0,0,0,0,3.475H57.571a1.738,1.738,0,1,0,0-3.475Z" transform="translate(0 -426.167)" fill="#fff"/>
</svg>
