<svg id="hotel" xmlns="http://www.w3.org/2000/svg" width="57.934" height="62.299" viewBox="0 0 57.934 62.299">
  <path id="Path_31" data-name="Path 31" d="M360,65.283h6.206a1.217,1.217,0,0,0,1.217-1.217V57.86a1.217,1.217,0,0,0-1.217-1.217H360a1.217,1.217,0,0,0-1.217,1.217v6.206A1.217,1.217,0,0,0,360,65.283Zm1.217-6.206h3.773v3.773h-3.773Z" transform="translate(-317.311 -49.751)" fill="#fff"/>
  <path id="Path_32" data-name="Path 32" d="M360,170.161h6.206a1.217,1.217,0,0,0,1.217-1.217v-6.206a1.217,1.217,0,0,0-1.217-1.217H360a1.217,1.217,0,0,0-1.217,1.217v6.206A1.217,1.217,0,0,0,360,170.161Zm1.217-6.206h3.773v3.773h-3.773Z" transform="translate(-317.311 -141.868)" fill="#fff"/>
  <path id="Path_33" data-name="Path 33" d="M360,275.039h6.206a1.217,1.217,0,0,0,1.217-1.217v-6.206a1.217,1.217,0,0,0-1.217-1.217H360a1.217,1.217,0,0,0-1.217,1.217v6.206A1.217,1.217,0,0,0,360,275.039Zm1.217-6.206h3.773v3.773h-3.773Z" transform="translate(-317.311 -233.984)" fill="#fff"/>
  <path id="Path_34" data-name="Path 34" d="M83.428,170.161h6.206a1.217,1.217,0,0,0,1.217-1.217v-6.206a1.217,1.217,0,0,0-1.217-1.217H83.428a1.217,1.217,0,0,0-1.217,1.217v6.206A1.217,1.217,0,0,0,83.428,170.161Zm1.217-6.206h3.773v3.773H84.645Z" transform="translate(-74.39 -141.868)" fill="#fff"/>
  <path id="Path_35" data-name="Path 35" d="M180.479,170.161h6.206a1.217,1.217,0,0,0,1.217-1.217v-6.206a1.217,1.217,0,0,0-1.217-1.217h-6.206a1.217,1.217,0,0,0-1.217,1.217v6.206A1.217,1.217,0,0,0,180.479,170.161Zm1.217-6.206h3.773v3.773H181.7Z" transform="translate(-159.632 -141.868)" fill="#fff"/>
  <path id="Path_36" data-name="Path 36" d="M89.634,275.039a1.217,1.217,0,0,0,1.217-1.217v-6.206a1.217,1.217,0,0,0-1.217-1.217H83.428a1.217,1.217,0,0,0-1.217,1.217v6.206a1.217,1.217,0,0,0,1.217,1.217Zm-4.989-6.206h3.773v3.773H84.645Z" transform="translate(-74.39 -233.984)" fill="#fff"/>
  <path id="Path_37" data-name="Path 37" d="M180.479,275.039h6.206a1.217,1.217,0,0,0,1.217-1.217v-6.206a1.217,1.217,0,0,0-1.217-1.217h-6.206a1.217,1.217,0,0,0-1.217,1.217v6.206A1.217,1.217,0,0,0,180.479,275.039Zm1.217-6.206h3.773v3.773H181.7Z" transform="translate(-159.632 -233.984)" fill="#fff"/>
  <path id="Path_38" data-name="Path 38" d="M74.653,54.214H73.632v-53A1.217,1.217,0,0,0,72.415,0H43.234a1.217,1.217,0,0,0-1.217,1.217V13.1H21.391a1.217,1.217,0,0,0-1.217,1.217v39.9H19.153a1.217,1.217,0,0,0-1.217,1.217v5.651A1.217,1.217,0,0,0,19.153,62.3h55.5a1.217,1.217,0,0,0,1.217-1.217V55.431A1.217,1.217,0,0,0,74.653,54.214Zm-30.2-51.78H71.2v51.78H66.163V52.9a8.4,8.4,0,0,0-14.374-5.909V41.054h3.235a1.217,1.217,0,0,0,1.217-1.217V33.631a1.217,1.217,0,0,0-1.217-1.217H51.788V28.293h3.235a1.217,1.217,0,0,0,1.217-1.217V20.87a1.217,1.217,0,0,0-1.217-1.217H51.788V15.532h3.235a1.217,1.217,0,0,0,1.217-1.217V8.109a1.217,1.217,0,0,0-1.217-1.217H48.817A1.217,1.217,0,0,0,47.6,8.109V13.1H44.451V2.434ZM50.034,13.1V9.326h3.773V13.1Zm1.754,8.989h2.018V25.86H51.788Zm0,12.761h2.018v3.773H51.788Zm0,18.053a5.97,5.97,0,1,1,11.941,0v1.313H51.788V52.9ZM22.608,15.532H49.355V54.214H43.1v-2.6a7.121,7.121,0,1,0-14.242,0v2.6H22.608ZM40.669,54.214H31.293v-2.6a4.688,4.688,0,1,1,9.375,0Zm32.768,5.651H20.37V56.648H73.436Z" transform="translate(-17.936)" fill="#fff"/>
</svg>
